<?xml version="1.0" encoding="UTF-8" standalone="no"?>
<svg
   version="1.0"
   width="1300.000000pt"
   height="1300.000000pt"
   viewBox="0 0 1300.000000 1300.000000"
   preserveAspectRatio="xMidYMid meet"
   id="svg6"
   sodipodi:docname="click-here.svg"
   inkscape:version="1.3 (0e150ed, 2023-07-21)"
   xmlns:inkscape="http://www.inkscape.org/namespaces/inkscape"
   xmlns:sodipodi="http://sodipodi.sourceforge.net/DTD/sodipodi-0.dtd"
   xmlns="http://www.w3.org/2000/svg"
   xmlns:svg="http://www.w3.org/2000/svg">
  <defs
     id="defs6" />
  <sodipodi:namedview
     id="namedview6"
     pagecolor="#ffffff"
     bordercolor="#000000"
     borderopacity="0.25"
     inkscape:showpageshadow="2"
     inkscape:pageopacity="0.0"
     inkscape:pagecheckerboard="0"
     inkscape:deskcolor="#d1d1d1"
     inkscape:document-units="pt"
     showgrid="false"
     inkscape:zoom="0.32778422"
     inkscape:cx="706.25731"
     inkscape:cy="916.76164"
     inkscape:window-width="1440"
     inkscape:window-height="772"
     inkscape:window-x="0"
     inkscape:window-y="25"
     inkscape:window-maximized="0"
     inkscape:current-layer="svg6" />
  <g
     transform="matrix(0.07205201,0,0,-0.07205201,183.97794,1320.2188)"
     stroke="none"
     id="g6"
     >
    <path
       d="m 5880,12594 c -407,-33 -663,-65 -920,-115 -765,-150 -1454,-405 -2185,-809 -199,-110 -549,-352 -716,-494 -19,-17 -49,-42 -65,-55 -202,-166 -486,-460 -674,-697 -162,-204 -326,-458 -445,-689 -70,-137 -149,-314 -142,-321 2,-2 21,22 43,53 55,81 185,253 198,260 5,4 1,-7 -11,-23 C 917,9640 800,9416 738,9275 534,8815 400,8288 350,7760 c -14,-143 -14,-627 -1,-737 16,-131 43,-206 68,-190 6,4 13,105 16,244 11,368 48,681 119,988 11,50 26,115 33,145 61,265 261,755 400,975 20,33 44,71 52,83 28,45 24,14 -5,-34 -150,-257 -294,-654 -357,-984 -20,-103 -31,-405 -13,-350 6,19 42,134 80,255 38,121 93,286 123,366 30,81 55,150 55,153 0,8 50,122 144,326 63,138 96,203 209,409 63,117 215,347 306,466 25,32 53,68 61,79 83,109 245,275 360,369 81,67 81,63 -6,-28 -367,-390 -673,-892 -883,-1450 -59,-156 -116,-328 -154,-465 -79,-282 -73,-257 -132,-545 -44,-213 -91,-576 -100,-765 -3,-69 -9,-145 -12,-170 l -7,-45 -7,55 c -4,30 -8,201 -9,380 l -2,325 -38,-225 c -53,-307 -66,-515 -51,-786 18,-320 71,-774 147,-1239 33,-206 106,-492 168,-656 69,-184 88,-233 130,-327 122,-278 370,-705 549,-947 12,-16 47,-64 77,-105 49,-68 150,-198 175,-226 6,-7 26,-31 45,-55 113,-141 227,-266 422,-462 75,-75 134,-137 131,-137 -21,0 -217,116 -337,200 -135,94 -396,340 -541,510 -75,87 -200,212 -229,227 -28,15 -28,13 24,-84 163,-305 415,-617 741,-915 51,-47 117,-104 144,-126 68,-55 180,-143 207,-164 65,-50 -186,82 -266,140 -114,83 39,-78 181,-190 275,-217 698,-485 1193,-756 182,-100 734,-379 870,-441 355,-161 819,-318 1140,-386 225,-47 269,-56 363,-70 431,-66 635,-80 1102,-72 361,6 484,16 790,62 468,70 1000,219 1444,405 115,47 400,193 535,272 361,212 744,500 1060,798 83,79 322,322 397,405 30,33 57,62 60,65 5,4 107,125 156,185 415,505 769,1085 940,1540 198,525 282,986 254,1386 -13,175 -37,275 -96,394 -130,264 -328,452 -570,543 -108,41 -138,49 -222,61 -151,23 -338,4 -503,-50 -185,-61 -272,-128 -353,-272 -86,-153 -91,-247 -26,-435 107,-309 111,-330 118,-764 3,-196 9,-360 13,-363 14,-14 56,5 93,42 l 37,38 -6,-60 c -3,-33 -8,-96 -11,-140 -30,-401 -210,-878 -466,-1235 -106,-148 -113,-153 -54,-36 30,59 53,111 53,115 -1,3 3,15 9,26 29,54 86,285 63,258 -3,-4 -24,-30 -46,-58 -51,-65 -170,-181 -264,-257 -41,-34 -84,-68 -94,-77 -27,-22 -16,-5 59,94 244,326 429,646 509,881 30,91 38,130 42,210 4,82 2,95 -8,74 -6,-14 -33,-72 -60,-129 -50,-108 -132,-239 -192,-305 -20,-22 -36,-37 -36,-34 0,3 15,46 34,95 45,116 86,281 92,368 l 5,70 -58,-115 c -79,-156 -127,-239 -192,-340 -31,-47 -58,-89 -61,-95 -5,-10 -100,-148 -135,-195 -11,-15 -29,-40 -40,-56 -22,-32 -183,-243 -200,-260 -5,-7 -26,-31 -45,-55 -181,-226 -436,-509 -575,-640 -135,-127 -359,-290 -564,-409 -108,-62 -375,-197 -466,-235 -338,-142 -665,-253 -945,-321 -100,-25 -74,-27 200,-21 254,6 409,26 635,82 489,120 965,354 1358,665 l 88,70 -43,-63 c -89,-132 -311,-333 -523,-474 -299,-200 -744,-401 -1175,-531 -406,-122 -772,-195 -1195,-239 -240,-25 -837,-25 -1050,0 -297,34 -577,94 -820,176 -583,195 -939,356 -1347,608 -48,30 -90,53 -94,53 -4,-1 -10,2 -13,7 -6,9 -76,63 -158,123 -145,105 -384,327 -444,412 -33,46 -7,28 150,-104 31,-26 60,-48 64,-48 5,0 34,-22 65,-48 31,-27 67,-55 78,-63 12,-8 75,-50 140,-94 319,-217 656,-390 941,-483 160,-53 192,-59 120,-23 -60,31 -130,77 -282,186 -49,35 -108,75 -130,88 -394,234 -642,412 -1014,727 -473,400 -950,927 -1141,1260 -49,86 -165,325 -210,435 -45,109 -163,463 -204,615 -160,588 -247,1351 -217,1897 17,317 29,422 101,833 13,76 78,340 106,430 14,47 28,96 31,110 9,39 120,335 165,440 38,89 164,338 222,440 14,25 33,59 42,75 121,218 388,567 658,860 133,144 489,474 617,570 14,11 80,61 145,111 201,153 418,294 639,415 102,55 394,199 405,199 6,0 29,9 52,21 81,41 345,137 531,193 218,66 575,143 817,175 475,65 1134,53 1645,-30 185,-30 452,-84 652,-133 507,-124 980,-319 1427,-588 110,-66 259,-165 346,-228 30,-22 66,-48 80,-57 62,-43 301,-233 325,-259 6,-6 44,-39 85,-75 102,-87 188,-169 349,-334 124,-126 160,-165 270,-285 77,-84 327,-397 423,-530 172,-239 353,-520 453,-705 51,-95 57,-99 33,-24 -11,35 -28,89 -38,119 -67,209 -247,585 -386,807 -111,177 -148,232 -265,388 -162,217 -288,364 -461,540 -76,77 -138,142 -139,145 0,3 -28,29 -62,59 -34,30 -82,73 -107,96 -25,22 -76,67 -115,99 -81,67 -97,83 -75,71 383,-212 759,-604 1168,-1218 62,-93 112,-171 112,-173 0,-3 13,-24 28,-47 81,-120 342,-594 434,-786 29,-61 53,-109 55,-107 4,3 -75,244 -116,355 -108,292 -322,707 -487,944 -30,42 -51,77 -46,77 13,0 157,-145 202,-203 78,-101 190,-275 256,-401 38,-71 70,-123 72,-117 7,21 -82,260 -149,399 -203,421 -545,875 -1010,1341 -660,664 -1662,1222 -2574,1434 -314,73 -481,96 -1055,143 -181,15 -1139,28 -1270,18 z M 1080,9320 c -6,-11 -13,-20 -16,-20 -2,0 0,9 6,20 6,11 13,20 16,20 2,0 0,-9 -6,-20 z M 2536,2972 c 72,-52 132,-138 111,-158 -9,-9 -153,139 -159,164 -8,29 1,28 48,-6 z m 649,-1071 c 292,-144 398,-195 575,-276 63,-29 189,-87 280,-130 91,-42 179,-83 195,-90 17,-7 57,-26 90,-40 135,-61 255,-115 316,-143 35,-17 145,-66 244,-110 193,-86 321,-146 293,-138 -9,3 -36,10 -60,16 -24,6 -83,24 -133,40 -619,196 -668,211 -672,206 -2,-2 24,-24 59,-48 197,-139 433,-246 743,-336 160,-47 257,-69 700,-156 769,-153 760,-149 286,-116 -627,44 -849,96 -1326,310 -212,95 -291,132 -420,197 -303,152 -800,457 -1102,677 -23,17 -83,60 -134,96 -50,36 -108,79 -129,95 -21,17 -63,48 -94,70 -31,22 -56,40 -56,42 0,4 62,-26 345,-166 z"
       id="path1"
        />
    <path
       d="m 3725,1560 c -3,-6 -4,-19 0,-29 8,-26 81,-91 101,-91 9,0 32,-9 50,-21 29,-17 35,-18 40,-6 13,35 -47,109 -110,138 -46,21 -72,24 -81,9 z"
       id="path2"
        />
    <path
       d="m 285,4650 c -13,-15 -20,-42 -23,-101 -9,-164 38,-317 137,-446 33,-43 95,-125 138,-183 140,-188 268,-304 248,-222 -12,50 -62,166 -147,342 -107,221 -150,317 -181,405 -52,146 -100,225 -136,225 -10,0 -26,-9 -36,-20 z"
       id="path3"
        />
    <path
       d="m 956,3594 c -39,-39 8,-134 67,-134 31,0 46,18 54,63 5,30 1,40 -22,61 -32,29 -76,34 -99,10 z"
       id="path4"
        />
    <path
       d="m 964,3366 c -16,-42 123,-216 173,-216 7,0 20,11 28,24 15,22 15,27 1,54 -25,48 -150,152 -184,152 -7,0 -15,-6 -18,-14 z"
       id="path5"
        />
    <path
       d="m 960,3048 c 0,-32 48,-129 115,-233 107,-166 243,-331 435,-529 366,-376 559,-550 920,-827 85,-65 366,-259 376,-259 3,0 24,-13 47,-28 47,-32 275,-156 412,-225 445,-223 802,-349 1245,-436 139,-28 356,-62 384,-61 16,1 -91,55 -201,101 -386,162 -591,260 -948,454 -38,21 -88,48 -110,60 -155,84 -472,266 -650,374 -66,41 -135,82 -153,92 -18,11 -45,28 -60,38 -15,10 -61,40 -102,65 -346,215 -576,405 -1080,892 -256,246 -343,328 -450,420 -154,132 -180,147 -180,102 z"
       id="path6"
        />
  </g>
  <text
     xml:space="preserve"
     style="font-size:250.325px;font-family:Heydex;-inkscape-font-specification:Heydex;stroke-width:224.386;stroke-linecap:round;stroke-linejoin:round"
     x="15.01251"
     y="350.82553"
     id="text6"
     transform="matrix(1.0087664,-0.10507669,0.10815622,0.98004385,0,0)"><tspan
       sodipodi:role="line"
       id="tspan6"
       style="stroke-width:224.386"
       x="15.01251"
       y="350.82553">Click Here!</tspan></text>
</svg>
