<?xml version="1.0" encoding="UTF-8" standalone="no"?>
<svg
   width="388"
   height="512"
   viewBox="0 0 388 512"
   version="1.1"
   id="svg1"
   sodipodi:docname="firebase.svg"
   inkscape:version="1.3 (0e150ed, 2023-07-21)"
   xmlns:inkscape="http://www.inkscape.org/namespaces/inkscape"
   xmlns:sodipodi="http://sodipodi.sourceforge.net/DTD/sodipodi-0.dtd"
   xmlns="http://www.w3.org/2000/svg"
   xmlns:svg="http://www.w3.org/2000/svg"
   xmlns:rdf="http://www.w3.org/1999/02/22-rdf-syntax-ns#"
   xmlns:cc="http://creativecommons.org/ns#"
   xmlns:dc="http://purl.org/dc/elements/1.1/">
  <sodipodi:namedview
     id="namedview1"
     pagecolor="#ffffff"
     bordercolor="#000000"
     borderopacity="0.25"
     inkscape:showpageshadow="2"
     inkscape:pageopacity="0.0"
     inkscape:pagecheckerboard="0"
     inkscape:deskcolor="#d1d1d1"
     inkscape:zoom="0.78376606"
     inkscape:cx="243.05722"
     inkscape:cy="280.05806"
     inkscape:window-width="1440"
     inkscape:window-height="772"
     inkscape:window-x="0"
     inkscape:window-y="25"
     inkscape:window-maximized="0"
     inkscape:current-layer="svg1" />
  <path
     d="M 42.608885,324.56556 86.757235,40.615425 c 0.67064,-4.326884 4.019029,-7.738217 8.31493,-8.47123 4.2959,-0.733013 8.577015,1.376491 10.631115,5.238449 l 47.46645,89.092376 z M 356.10526,393.47215 314.08453,132.15148 c -0.63476,-3.75312 -3.29986,-6.83685 -6.90873,-7.994 -3.60887,-1.15716 -7.55861,-0.19439 -10.23896,2.49573 L 31.894736,393.47215 178.54934,476.12442 c 9.20918,5.16744 20.42569,5.16744 29.63487,0 z M 236.93256,165.42112 202.96644,100.43459 c -1.75168,-3.346186 -5.20416,-5.441342 -8.96645,-5.441342 -3.76228,0 -7.21475,2.095156 -8.96644,5.441342 L 35.89671,367.71172 Z"
     id="icon"
     style="fill-rule:nonzero" />
</svg>
