<?xml version="1.0" standalone="no"?>
<!DOCTYPE svg PUBLIC "-//W3C//DTD SVG 20010904//EN"
 "http://www.w3.org/TR/2001/REC-SVG-20010904/DTD/svg10.dtd">
<svg version="1.0" xmlns="http://www.w3.org/2000/svg"
 width="347.000000pt" height="332.000000pt" viewBox="0 0 347.000000 332.000000"
 preserveAspectRatio="xMidYMid meet">

<g transform="translate(0.000000,332.000000) scale(0.100000,-0.100000)"
 stroke="none">
<path d="M1157 3159 c-67 -27 -104 -57 -177 -143 -81 -98 -121 -123 -212 -136
-138 -20 -201 -45 -255 -102 -53 -55 -71 -109 -79 -238 -8 -134 -18 -157 -97
-219 -57 -43 -108 -108 -132 -165 -25 -60 -19 -141 21 -261 40 -123 39 -144
-5 -205 -79 -110 -54 -223 91 -401 25 -30 51 -73 58 -95 46 -145 191 -371 331
-518 334 -350 774 -532 1244 -513 306 12 564 104 788 282 191 152 341 334 428
520 54 116 60 155 26 189 -17 17 -37 26 -57 26 l-30 0 40 80 c61 120 90 234
97 370 8 167 -2 246 -35 277 -22 20 -34 24 -63 19 l-36 -6 -7 76 c-13 142 -78
297 -167 397 -30 35 -42 41 -76 41 -37 1 -44 6 -88 61 -104 131 -285 283 -444
372 -181 102 -347 156 -547 179 -77 9 -146 20 -154 25 -8 5 -37 22 -65 39
-116 70 -293 92 -398 49z m244 -65 c65 -20 122 -48 166 -82 38 -31 29 -41 -37
-42 -254 -3 -611 -177 -803 -392 -181 -202 -277 -390 -337 -663 -31 -140 -32
-360 -2 -495 11 -52 24 -104 28 -115 7 -18 6 -19 -10 -5 -29 23 -107 128 -132
179 -34 67 -31 106 13 171 35 51 38 60 38 125 -1 50 -9 92 -28 147 -59 168
-45 222 90 344 46 42 91 90 99 106 9 18 18 77 23 152 7 102 12 131 32 167 33
59 105 96 218 110 46 5 102 19 125 31 22 11 91 71 151 132 91 93 118 115 160
129 65 21 138 21 206 1z m453 -170 c309 -59 648 -265 825 -502 149 -197 144
-341 -12 -407 -85 -35 -288 -35 -457 1 -120 26 -384 117 -530 184 -278 127
-363 152 -515 152 -198 0 -364 -76 -509 -233 -118 -127 -199 -286 -235 -463
-16 -76 -20 -86 -26 -63 -17 65 14 300 62 467 39 138 153 339 263 465 288 328
717 479 1134 399z m1091 -689 c78 -138 99 -326 56 -496 -12 -46 -45 -132 -74
-191 -29 -60 -51 -108 -49 -108 2 0 22 19 44 43 52 55 137 184 184 280 21 43
41 77 45 77 12 0 21 -129 14 -208 -27 -313 -207 -597 -475 -750 -104 -60 28
-28 160 38 36 18 113 66 173 106 59 41 107 68 107 61 0 -6 -24 -60 -54 -119
-142 -283 -431 -546 -715 -648 -253 -92 -499 -109 -772 -55 -151 30 -248 64
-383 132 -313 157 -547 383 -694 670 -65 128 -76 182 -76 378 0 171 14 252 67
385 53 131 169 284 275 362 67 50 179 102 250 117 74 15 218 14 299 -4 98 -20
311 -110 282 -118 -348 -105 -546 -330 -574 -652 -12 -151 27 -340 100 -470
70 -127 208 -261 339 -330 l51 -28 -36 39 c-58 62 -120 161 -146 231 -21 57
-31 123 -18 123 2 0 35 -31 72 -68 295 -296 615 -429 958 -397 84 8 84 18 -1
29 -97 12 -235 79 -298 145 l-28 29 64 7 c236 25 463 129 656 299 66 58 70 70
14 36 -87 -53 -285 -94 -355 -73 l-29 9 56 38 c117 81 264 261 350 431 109
215 151 466 108 645 -11 47 -24 94 -27 105 -11 33 42 -33 80 -100z m-1145
-205 c258 -104 470 -151 670 -152 155 0 235 19 310 73 l43 31 -7 -58 c-14
-119 -90 -305 -183 -447 -59 -89 -180 -217 -259 -273 -64 -45 -74 -60 -74 -97
1 -41 45 -77 94 -77 47 0 27 -17 -56 -48 -92 -35 -210 -62 -267 -62 -106 0
-154 -69 -96 -138 14 -17 25 -33 25 -36 0 -8 -135 41 -194 71 -120 60 -254
163 -381 292 -92 94 -116 101 -160 49 -21 -25 -26 -40 -23 -70 2 -21 0 -38 -4
-38 -24 0 -89 154 -113 268 -72 347 87 634 424 767 63 25 34 31 251 -55z"/>
<path d="M1172 2729 c-74 -29 -132 -86 -132 -130 0 -31 67 -170 88 -182 4 -3
99 0 212 5 149 8 209 14 220 24 12 12 1 14 -75 13 -50 0 -144 -4 -210 -8 -66
-4 -125 -6 -131 -4 -6 2 -25 35 -44 72 -41 87 -37 111 28 152 94 60 100 59
312 -6 104 -32 193 -57 197 -56 18 3 6 25 -17 32 -117 35 -273 84 -308 95 -56
18 -76 17 -140 -7z"/>
<path d="M2022 2508 c-51 -25 -30 -108 27 -108 55 0 80 61 41 100 -22 22 -35
24 -68 8z"/>
</g>
</svg>
