<?xml version="1.0" encoding="UTF-8" standalone="no"?>
<svg
   version="1.0"
   width="1024.000000pt"
   height="1024.000000pt"
   viewBox="0 0 1024.000000 1024.000000"
   preserveAspectRatio="xMidYMid meet"
   id="svg1"
   sodipodi:docname="ts.svg"
   inkscape:version="1.3 (0e150ed, 2023-07-21)"
   xmlns:inkscape="http://www.inkscape.org/namespaces/inkscape"
   xmlns:sodipodi="http://sodipodi.sourceforge.net/DTD/sodipodi-0.dtd"
   xmlns="http://www.w3.org/2000/svg"
   xmlns:svg="http://www.w3.org/2000/svg">
  <defs
     id="defs1" />
  <sodipodi:namedview
     id="namedview1"
     pagecolor="#ffffff"
     bordercolor="#000000"
     borderopacity="0.25"
     inkscape:showpageshadow="2"
     inkscape:pageopacity="0.0"
     inkscape:pagecheckerboard="0"
     inkscape:deskcolor="#d1d1d1"
     inkscape:document-units="pt"
     inkscape:zoom="0.3002661"
     inkscape:cx="647.75877"
     inkscape:cy="760.99167"
     inkscape:window-width="1440"
     inkscape:window-height="772"
     inkscape:window-x="0"
     inkscape:window-y="25"
     inkscape:window-maximized="0"
     inkscape:current-layer="svg1" />
  <g
     id="g2"
     transform="matrix(0.8684307,0,0,0.8684307,66.016823,67.473133)">
    <g
       transform="matrix(0.1,0,0,-0.1,0,1024)"
       stroke="none"
       id="g1">
      <path
         d="M 900,10234 C 742,10210 658,10184 540,10124 252,9977 50,9685 10,9360 2,9289 0,8186 2,5060 6,1181 -4.3507209,756.35655 10.649279,696.35655 115.64928,286.35655 418,99 820,18 c 96,-19 8504,-19 8600,0 413,83 738.864,286.84351 821.864,699.84351 19,96 11.591,8612.38399 -7.409,8708.38399 -41.14,206.8432 -152.523,382.6459 -293.9425,522.7005 -106.081,105.057 -236.0707,186.496 -383.5125,237.072 -166,57 99,54 -4447,53 -2302,-1 -4196,-3 -4210,-5 z M 8455,5470 c 265,-23 521,-74 700,-141 l 55,-20 v -470 c 0,-258 -2,-469 -5,-469 -2,0 -28,15 -57,34 -369,235 -956,338 -1354,236 -171,-44 -315,-144 -371,-258 -25,-50 -28,-68 -28,-152 0,-124 26,-183 123,-280 118,-118 293,-218 662,-378 270,-117 325,-143 467,-222 176,-99 269,-167 396,-290 203,-196 310,-406 347,-677 18,-130 8,-421 -18,-533 -118,-505 -504,-834 -1118,-954 -237,-46 -408,-59 -719,-53 -473,9 -833,76 -1128,211 l -77,35 v 500 c 0,276 4,501 8,501 5,0 35,-21 68,-46 326,-256 752,-404 1164,-404 385,0 641,107 733,307 18,40 22,65 21,148 0,130 -23,182 -125,290 -128,135 -308,237 -729,415 -425,179 -630,305 -823,503 -224,230 -327,499 -327,853 0,358 104,620 339,855 106,106 247,205 384,269 177,83 438,154 657,179 52,6 109,13 125,15 70,8 520,5 630,-4 z M 5940,4965 V 4550 H 5300 4660 V 2725 900 h -515 -515 v 1825 1825 h -635 -635 v 415 415 h 1790 1790 z"
         id="path1"
         sodipodi:nodetypes="cccccccccsccccccsscccsscccccccccsscscccccssccccccccccccccccccccc" />
    </g>
    <rect
       style="fill-opacity:1;stroke-width:7.94421;stroke-linecap:round;stroke-linejoin:round"
       id="rect1"
       width="1024.2906"
       height="224.7227"
       x="0.23675394"
       y="-0.20420314" />
    <rect
       style="fill-opacity:1;stroke-width:4.764;stroke-linecap:round;stroke-linejoin:round"
       id="rect1-6"
       width="1024.0068"
       height="80.836746"
       x="0.34834355"
       y="943.40875" />
  </g>
</svg>
