<?xml version="1.0" encoding="UTF-8" standalone="no"?>
<svg
   version="1.0"
   width="512"
   height="512"
   viewBox="0 0 512 512"
   preserveAspectRatio="xMidYMid"
   id="svg3"
   sodipodi:docname="rxjs.svg"
   inkscape:version="1.3 (0e150ed, 2023-07-21)"
   xmlns:inkscape="http://www.inkscape.org/namespaces/inkscape"
   xmlns:sodipodi="http://sodipodi.sourceforge.net/DTD/sodipodi-0.dtd"
   xmlns="http://www.w3.org/2000/svg"
   xmlns:svg="http://www.w3.org/2000/svg">
  <defs
     id="defs3" />
  <sodipodi:namedview
     id="namedview3"
     pagecolor="#ffffff"
     bordercolor="#000000"
     borderopacity="0.25"
     inkscape:showpageshadow="2"
     inkscape:pageopacity="0.0"
     inkscape:pagecheckerboard="0"
     inkscape:deskcolor="#d1d1d1"
     inkscape:document-units="pt"
     inkscape:zoom="1.010904"
     inkscape:cx="211.19712"
     inkscape:cy="253.7333"
     inkscape:window-width="1440"
     inkscape:window-height="772"
     inkscape:window-x="0"
     inkscape:window-y="25"
     inkscape:window-maximized="0"
     inkscape:current-layer="svg3" />
  <path
     style="fill:transparent;fill-opacity:1;stroke:none;stroke-width:10.7565;stroke-linecap:round;stroke-linejoin:round;stroke-opacity:1"
     d="m 246.3142,57.374392 71.22338,16.816632 59.35282,38.579336 39.56855,39.56854 6.9245,39.56855 -20.77349,19.78427 -56.38518,5.93528 -86.06159,-25.71955 -15.82742,-7.91371 -41.54697,19.78427 -31.65484,34.62248 -9.89213,43.5254 9.89213,49.46069 18.79506,29.67641 2.96764,-19.78428 4.94607,-10.88135 15.82742,14.83821 39.56855,32.64405 48.47147,20.77348 7.91371,-2.96764 -14.83821,-21.7627 25.71956,-3.95685 43.5254,-12.85978 11.87056,-12.85978 -26.70877,-2.96764 -2.96764,-6.92449 28.6872,-21.7627 29.67641,-40.55776 18.79506,-44.51462 -5.93529,-77.15866 7.91371,-0.98922 17.80585,21.7627 10.88135,34.62248 -2.96764,42.53619 9.89213,-22.75192 5.93529,-2.96764 4.94607,9.89214 2.96764,40.55776 -25.71956,64.29889 16.81663,-3.95686 1.97843,7.91371 -26.70877,53.41754 -44.51461,41.54697 -53.41754,25.71956 -63.30967,10.88135 -65.28811,-9.89214 L 157.28497,435.25401 104.85665,392.71782 65.288101,325.45129 57.374392,306.65623 36.600905,276.97982 V 264.12005 L 47.482256,246.3142 v -19.78427 l -10.881351,-35.61169 10.881351,-17.80585 25.719555,-22.75191 3.956854,-46.49305 23.741125,-15.827414 33.63327,-6.924496 36.6009,-35.611692 34.62248,-5.935282 z"
     id="path4" />
  <path
     d="m 175.37126,38.393866 c -9.80025,3.949352 -15.21232,8.33752 -25.8902,20.916937 C 137.633,73.645488 131.78211,77.302295 118.47133,79.203835 98.285759,82.129281 89.070604,85.786088 81.171901,94.123608 73.419469,102.16858 70.786568,110.06729 69.61639,128.93641 c -1.170178,19.60049 -2.632901,22.96475 -14.188412,32.03363 -8.337521,6.28971 -15.797408,15.79741 -19.307943,24.13493 -3.656807,8.77634 -2.779173,20.6244 3.071719,38.17707 5.850891,17.99149 5.704619,21.06321 -0.731362,29.98582 -11.555511,16.08995 -7.898704,32.61872 13.310778,58.65519 3.656808,4.38817 7.459887,10.67788 8.483793,13.89587 6.728526,21.20948 27.938008,54.26702 48.416127,75.76904 48.85495,51.1953 113.21475,77.81686 181.96273,75.03769 44.75932,-1.75527 82.49757,-15.21232 115.26256,-41.24879 27.93801,-22.23339 49.87886,-48.85494 62.60454,-76.06159 7.89871,-16.96759 8.77634,-22.6722 3.80308,-27.64546 -2.48662,-2.48663 -5.41207,-3.80308 -8.33752,-3.80308 h -4.38817 l 5.8509,-11.70179 c 8.92261,-17.55267 13.1645,-34.22771 14.18841,-54.12074 1.17018,-24.42748 -0.29255,-35.98299 -5.11953,-40.51743 -3.21799,-2.92544 -4.97326,-3.51053 -9.21516,-2.77917 l -5.2658,0.87763 -1.0239,-11.11669 c -1.90154,-20.77067 -11.40924,-43.44287 -24.42748,-58.0701 -4.38817,-5.11953 -6.14343,-5.99716 -11.11669,-5.99716 -5.41208,-0.14628 -6.43598,-0.87764 -12.87196,-8.92261 C 395.36478,116.357 368.8895,94.123608 345.6322,81.105375 319.15692,66.185601 294.87572,58.286897 265.62126,54.922635 254.35829,53.606184 244.2655,51.997189 243.09533,51.265827 c -1.17018,-0.731361 -5.41208,-3.21799 -9.5077,-5.704619 -16.96759,-10.23906 -42.85778,-13.457051 -58.21637,-7.167342 z m 35.69043,9.507699 c 9.5077,2.925446 17.84522,7.02107 24.2812,11.994328 5.55835,4.534441 4.2419,5.997163 -5.41207,6.143436 -37.15316,0.438817 -89.37237,25.890195 -117.45665,57.338741 -26.475284,29.547 -40.517424,57.04619 -49.293761,96.97852 -4.534441,20.47813 -4.680713,52.65803 -0.292544,72.40479 1.608995,7.60616 3.510534,15.21232 4.095624,16.82131 1.023906,2.6329 0.877633,2.77918 -1.462723,0.73136 -4.241897,-3.36426 -15.651135,-18.72285 -19.307943,-26.18274 -4.973257,-9.80024 -4.534441,-15.50486 1.90154,-25.01256 5.11953,-7.45989 5.558347,-8.77634 5.558347,-18.28403 -0.146272,-7.31362 -1.31645,-13.45706 -4.095624,-21.50203 -8.630065,-24.57375 -6.582253,-32.47245 13.164506,-50.31767 6.728526,-6.14344 13.310779,-13.16451 14.480957,-15.50486 1.316451,-2.6329 2.632901,-11.26297 3.364263,-22.23339 1.023906,-14.91977 1.755267,-19.16167 4.680713,-24.42747 4.826985,-8.630068 15.358595,-14.042142 31.887355,-16.089954 6.72853,-0.731362 14.91978,-2.779174 18.28404,-4.534441 3.21799,-1.608995 13.31078,-10.385333 22.08712,-19.307943 13.31077,-13.603323 17.26013,-16.821313 23.40356,-18.869125 9.5077,-3.071718 20.18558,-3.071718 30.13209,-0.146272 z m 66.26135,24.866289 c 45.19814,8.630065 94.78445,38.762156 120.67464,73.428686 21.79457,28.81564 21.06321,49.87885 -1.75527,59.53283 -12.43314,5.11953 -42.12642,5.11953 -66.84643,-0.14628 -17.55268,-3.80308 -56.16856,-17.11385 -77.52432,-26.9141 -40.66369,-18.57658 -53.09684,-22.23339 -75.33023,-22.23339 -28.96191,0 -53.24311,11.1167 -74.45259,34.08145 -17.260132,18.57658 -29.108187,41.83387 -34.37399,67.72407 -2.340357,11.11669 -2.925446,12.57941 -3.803079,9.21515 -2.486629,-9.5077 2.047812,-43.88168 9.068882,-68.30916 5.704619,-20.18557 22.37966,-49.5863 38.469607,-68.01661 C 153.57668,83.153187 216.3275,61.066071 277.32304,72.767854 Z M 436.90611,173.54946 c 11.40924,20.18558 14.48096,47.68477 8.19125,72.55106 -1.75527,6.72852 -6.58225,19.30794 -10.82415,27.93801 -4.2419,8.77633 -7.45989,15.7974 -7.16734,15.7974 0.29254,0 3.21799,-2.77917 6.43598,-6.28971 7.60616,-8.04497 20.0393,-26.9141 26.9141,-40.95624 3.07172,-6.28971 5.99716,-11.26296 6.58225,-11.26296 1.75527,0 3.07172,18.86912 2.04781,30.42463 -3.94935,45.78323 -30.27836,87.32456 -69.47933,109.70422 -15.21232,8.77634 4.09562,4.09562 23.40356,-5.55835 5.2658,-2.6329 16.52877,-9.65397 25.30511,-15.50486 8.63006,-5.99716 15.65113,-9.94652 15.65113,-8.92261 0,0.87763 -3.51053,8.77634 -7.8987,17.4064 -20.77067,41.39506 -63.04336,79.86467 -104.58469,94.78445 -37.00689,13.45705 -72.98987,15.94368 -112.92221,8.04497 C 216.47377,457.3177 202.28536,452.34445 182.5386,442.39793 136.75537,419.43318 102.52766,386.37564 81.025628,344.3955 71.51793,325.67264 69.908934,317.77394 69.908934,289.10457 c 0,-25.01256 2.047812,-36.86062 9.800244,-56.31483 7.752431,-19.16167 24.720012,-41.54133 40.224882,-52.95057 9.80024,-7.31361 26.18274,-14.91977 36.56807,-17.11386 10.82415,-2.19408 31.88736,-2.04781 43.73541,0.58509 14.33469,2.92545 45.49069,16.08995 41.24879,17.26013 -50.90276,15.35859 -79.86467,48.26986 -83.96029,95.36953 -1.75527,22.08712 3.94935,49.73258 14.62723,68.74798 10.23906,18.57658 30.42463,38.17707 49.5863,48.26986 l 7.45989,4.09562 -5.2658,-5.70462 c -8.4838,-9.06888 -17.55268,-23.54984 -21.35576,-33.7889 -3.07172,-8.33752 -4.53444,-17.99149 -2.6329,-17.99149 0.29254,0 5.11953,4.53444 10.53161,9.94652 43.15032,43.29659 89.95745,62.75081 140.12885,58.0701 12.28687,-1.17018 12.28687,-2.63291 -0.14627,-4.2419 -14.18842,-1.75527 -34.37399,-11.55551 -43.58915,-21.20948 l -4.09562,-4.2419 9.36143,-1.02391 c 34.52026,-3.6568 67.72407,-18.86912 95.95462,-43.73541 9.65397,-8.48379 10.23906,-10.23906 2.04781,-5.2658 -12.72569,7.75243 -41.6876,13.74959 -51.92666,10.67787 l -4.2419,-1.31645 8.19125,-5.55834 c 17.11386,-11.84806 38.61588,-38.17707 51.1953,-63.04336 15.94368,-31.44854 22.08712,-68.16289 15.79741,-94.34563 -1.609,-6.87479 -3.51054,-13.74959 -3.94935,-15.35859 -1.609,-4.82698 6.14343,4.82699 11.70178,14.62723 z m -167.48177,29.98582 c 37.73825,15.21232 68.74797,22.08712 98.00243,22.23339 22.67221,0 34.37399,-2.77917 45.34441,-10.67788 l 6.28971,-4.53444 -1.02391,8.48379 c -2.04781,17.40641 -13.1645,44.61305 -26.76782,65.38372 -8.63007,13.01823 -26.32902,31.74108 -37.88453,39.93233 -9.36142,6.58226 -10.82415,8.77634 -10.82415,14.18841 0.14628,5.99717 6.58226,11.26297 13.7496,11.26297 6.8748,0 3.94935,2.48663 -8.19125,7.02107 -13.45705,5.11953 -30.71718,9.06888 -39.0547,9.06888 -15.50486,0 -22.52593,10.09279 -14.04214,20.18558 2.04781,2.48663 3.65681,4.82698 3.65681,5.2658 0,1.17018 -19.74676,-5.99716 -28.37683,-10.38533 -17.55267,-8.77634 -37.15316,-23.84238 -55.72974,-42.71151 -13.45705,-13.74959 -16.96759,-14.7735 -23.40357,-7.16734 -3.07172,3.65681 -3.80308,5.85089 -3.36426,10.23906 0.29254,3.07172 0,5.55835 -0.58509,5.55835 -3.51053,0 -13.01823,-22.52594 -16.52877,-39.20098 -10.5316,-50.75648 12.72569,-92.73663 62.01945,-112.19084 9.21516,-3.65681 4.97326,-4.53445 36.71435,8.04497 z"
     id="path1"
     style="stroke:none;stroke-width:0.2" />
  <path
     d="m 177.56534,101.29095 c -10.82415,4.2419 -19.30794,12.57942 -19.30794,19.0154 0,4.53444 9.80024,24.86629 12.87196,26.62156 0.58509,0.43881 14.48096,0 31.00972,-0.73137 21.79458,-1.17017 30.57091,-2.04781 32.17991,-3.51053 1.75527,-1.75527 0.14627,-2.04781 -10.97042,-1.90154 -7.31362,0 -21.06321,0.58509 -30.71718,1.17018 -9.65398,0.58509 -18.28404,0.87763 -19.16167,0.58509 -0.87764,-0.29255 -3.65681,-5.11953 -6.43599,-10.53161 -5.99716,-12.72569 -5.41207,-16.23622 4.09563,-22.23339 13.74959,-8.77633 14.62723,-8.63006 45.63695,0.87764 15.21232,4.68071 28.23056,8.33752 28.81564,8.19125 2.63291,-0.43882 0.87764,-3.65681 -2.48662,-4.68072 -17.11386,-5.11953 -39.93234,-12.28687 -45.05187,-13.89587 -8.19125,-2.632897 -11.11669,-2.486624 -20.47812,1.02391 z"
     id="path2"
     style="stroke:none;stroke-width:0.2" />
  <path
     d="m 301.89679,133.61713 c -7.45989,3.6568 -4.38817,15.7974 3.94935,15.7974 8.04497,0 11.70178,-8.92261 5.99716,-14.62723 -3.21799,-3.21799 -5.11953,-3.51053 -9.94651,-1.17017 z"
     id="path3"
     style="stroke:none;stroke-width:0.2" />
</svg>
