<?xml version="1.0" encoding="UTF-8" standalone="no"?>
<svg
   version="1.0"
   width="512"
   height="512"
   viewBox="0 0 512 512"
   preserveAspectRatio="xMidYMid"
   id="svg1"
   sodipodi:docname="ts.svg"
   inkscape:version="1.3 (0e150ed, 2023-07-21)"
   xmlns:inkscape="http://www.inkscape.org/namespaces/inkscape"
   xmlns:sodipodi="http://sodipodi.sourceforge.net/DTD/sodipodi-0.dtd"
   xmlns="http://www.w3.org/2000/svg"
   xmlns:svg="http://www.w3.org/2000/svg">
  <defs
     id="defs1" />
  <sodipodi:namedview
     id="namedview1"
     pagecolor="#ffffff"
     bordercolor="#000000"
     borderopacity="0.25"
     inkscape:showpageshadow="true"
     inkscape:pageopacity="0.0"
     inkscape:pagecheckerboard="false"
     inkscape:deskcolor="#d1d1d1"
     inkscape:document-units="px"
     inkscape:zoom="0.76934549"
     inkscape:cx="264.51055"
     inkscape:cy="217.71753"
     inkscape:window-width="1440"
     inkscape:window-height="900"
     inkscape:window-x="0"
     inkscape:window-y="0"
     inkscape:window-maximized="0"
     inkscape:current-layer="svg1"
     showborder="true"
     labelstyle="default"
     borderlayer="true" />
  <path
     d="m 44.714675,32.517835 c -4.437334,1.121726 -8.362667,4.055468 -10.581333,8.02465 l -2.133334,3.710321 V 256.08629 467.91977 l 2.304,3.88289 c 1.365334,2.41602 3.669334,4.74576 5.973333,6.04006 l 3.669334,2.15716 H 255.57333 467.28532 l 4.18134,-2.15716 c 3.24266,-1.72573 4.69333,-3.1926 6.4,-6.47149 l 2.13333,-4.22804 V 256.08629 45.029385 l -2.13333,-4.228041 c -1.70667,-3.278889 -3.15734,-4.74576 -6.4,-6.471491 L 467.28532,32.172689 257.28,32.000116 c -115.456,0 -211.114659,0.172573 -212.565325,0.517719 z M 281.6,252.20339 V 270.755 h -28.58667 -28.58666 v 81.97222 81.97223 h -23.04 -23.04 V 352.72722 270.755 H 149.76 121.17334 V 252.20339 233.65178 H 201.38667 281.6 Z m 126.29333,-16.39444 c 4.43733,0.77658 10.83733,2.32973 14.08,3.36517 l 5.97333,1.89831 0.256,21.31277 0.17067,21.2265 -6.22934,-3.36518 c -13.73866,-7.50693 -27.904,-10.69953 -44.45866,-10.18181 -8.78933,0.34514 -12.20267,0.77658 -15.95733,2.32973 -16.29867,6.38521 -20.05334,18.98305 -9.04534,29.85515 4.864,4.74576 13.056,9.31895 31.744,17.68874 19.37067,8.62866 28.24533,14.06471 36.52267,22.17565 10.83733,10.61324 15.01866,20.27734 15.70133,36.49921 0.768,18.12017 -3.584,30.63172 -14.592,41.84897 -7.08267,7.24807 -14.50667,11.73498 -25.42933,15.27272 -26.79467,8.71495 -69.03467,6.98921 -93.86667,-3.7966 l -4.096,-1.72574 V 407.4329 384.73953 l 6.82667,4.74576 c 8.704,6.04006 18.00533,10.35439 28.16,12.94299 22.69867,5.95377 45.65333,2.07087 52.39466,-8.71495 2.13334,-3.45146 2.38934,-4.57318 2.048,-9.31894 -0.68266,-11.5624 -9.04533,-18.37904 -36.52266,-29.94144 -26.96533,-11.30353 -41.04533,-22.26193 -48.128,-37.44836 -3.92533,-8.28351 -5.12,-13.97842 -5.12,-24.24652 0,-14.32357 3.328,-24.16023 11.52,-34.08319 10.41067,-12.68412 26.624,-20.62248 48.81067,-24.07394 8.448,-1.2943 39.85066,-0.51772 49.23733,1.20801 z"
     id="path1"
     />
</svg>
